<svg width="248" height="38" viewBox="0 0 248 38" fill="none" xmlns="http://www.w3.org/2000/svg">
<path d="M54.1673 8.76046C51.5115 12.1673 48.5914 11.6806 47.618 11.6806C46.6446 11.6806 48.5115 9.04843 50.5381 6.81369C52.5648 4.57894 47.6333 8.54534 46.1579 10.2205C46.1579 10.2205 44.2111 3.40684 48.8137 2.92015C53.4162 2.43346 54.9184 0 54.9184 0C55.6003 3.51457 56.8231 5.35361 54.1673 8.76046Z" fill="#53D007"/>
<path d="M1.42175 37.8004C0.909407 37.8004 0.537959 37.6851 0.307405 37.4545C0.102468 37.224 0 36.8782 0 36.4171V13.4385C0.97345 12.7469 2.26711 12.1705 3.88099 11.7094C5.52048 11.2483 7.15998 11.0177 8.79947 11.0177C16.2284 11.0177 19.9429 14.2967 19.9429 20.8547C19.9429 23.8775 19.1232 26.2599 17.4837 28.0018C15.8698 29.7438 13.6411 30.6148 10.7976 30.6148C8.21028 30.6148 6.22495 29.8719 4.84163 28.3861V36.4171C4.84163 36.9038 4.72635 37.2496 4.4958 37.4545C4.29086 37.6851 3.91942 37.8004 3.38146 37.8004H1.42175ZM9.64484 27.118C11.4636 27.118 12.8214 26.5673 13.718 25.4657C14.6146 24.3642 15.0629 22.776 15.0629 20.701C15.0629 18.4723 14.5377 16.8968 13.4874 15.9746C12.4371 15.0268 10.8232 14.5529 8.64577 14.5529C7.03189 14.5529 5.76385 14.7962 4.84163 15.283V22.8528C4.84163 24.1593 5.30274 25.1968 6.22495 25.9653C7.14717 26.7338 8.28713 27.118 9.64484 27.118Z" fill="#E2E7E2"/>
<path d="M25.1376 30.0384C24.6252 30.0384 24.2538 29.9231 24.0232 29.6926C23.8183 29.462 23.7158 29.1162 23.7158 28.6551V5.33071C23.7158 4.84399 23.8183 4.48535 24.0232 4.2548C24.2538 4.02424 24.6252 3.90897 25.1376 3.90897H27.1741C27.6865 3.90897 28.0579 4.02424 28.2885 4.2548C28.519 4.48535 28.6343 4.84399 28.6343 5.33071V28.6551C28.6343 29.1162 28.519 29.462 28.2885 29.6926C28.0835 29.9231 27.7121 30.0384 27.1741 30.0384H25.1376Z" fill="#E2E7E2"/>
<path d="M39.5124 30.0384C37.0019 30.0384 35.0038 29.2827 33.518 27.7713C32.0322 26.2342 31.2893 24.0824 31.2893 21.3158C31.2893 19.1639 31.7632 17.2683 32.711 15.6288C33.6589 13.9637 35.0038 12.6828 36.7457 11.7862C38.5133 10.8896 40.5627 10.4413 42.8938 10.4413C46.1472 10.4413 48.901 11.2098 51.1553 12.7468V28.4245C51.1553 28.8088 51.0657 29.0777 50.8864 29.2314C50.7326 29.3851 50.4509 29.462 50.041 29.462H47.9276C47.6458 29.462 47.428 29.4108 47.2743 29.3083C47.1463 29.1802 47.0566 28.9881 47.0054 28.7319L46.698 27.2333C45.9038 28.2068 44.9176 28.924 43.7392 29.3851C42.5864 29.8206 41.1775 30.0384 39.5124 30.0384ZM41.3568 26.5416C42.7145 26.5416 43.9057 26.1446 44.9304 25.3505C45.9807 24.5563 46.5058 23.506 46.5058 22.1995V14.7065C45.9679 14.4248 45.4171 14.2326 44.8535 14.1302C44.3156 14.0021 43.6495 13.938 42.8554 13.938C40.8316 13.938 39.205 14.5785 37.9753 15.8593C36.7457 17.1402 36.1309 18.9078 36.1309 21.1621C36.1309 23.0065 36.5536 24.3642 37.399 25.2352C38.2699 26.1062 39.5892 26.5416 41.3568 26.5416Z" fill="#E2E7E2"/>
<path d="M64.8054 30.6148C63.2684 30.6148 61.7698 30.4483 60.3096 30.1152C58.8495 29.8078 57.5942 29.3339 56.5439 28.6935C56.2109 28.5142 56.0444 28.3221 56.0444 28.1171C56.0444 27.9634 56.0956 27.8225 56.1981 27.6944L57.274 25.8116C57.4021 25.581 57.5302 25.4657 57.6583 25.4657C57.7864 25.4657 57.9529 25.5298 58.1578 25.6579C58.9263 26.119 59.8741 26.5032 61.0013 26.8106C62.1285 27.118 63.1659 27.2718 64.1138 27.2718C65.574 27.2718 66.6114 27.1309 67.2262 26.8491C67.8667 26.5417 68.1869 26.0037 68.1869 25.2352C68.1869 24.7997 68.0588 24.4539 67.8026 24.1977C67.5721 23.9159 67.2134 23.6726 66.7267 23.4676C66.24 23.2627 65.4331 22.9809 64.3059 22.6223C64.3059 22.6223 63.8832 22.4814 63.0379 22.1996C61.5777 21.7128 60.4121 21.2389 59.5411 20.7778C58.6701 20.3167 57.9913 19.7403 57.5046 19.0487C57.0435 18.3314 56.8129 17.4348 56.8129 16.3589C56.8129 14.6169 57.543 13.2976 59.0032 12.401C60.489 11.4788 62.4102 11.0177 64.767 11.0177C67.6361 11.0177 70.1082 11.6325 72.1832 12.8621C72.5162 13.0415 72.6827 13.2336 72.6827 13.4385C72.6827 13.5666 72.6187 13.7331 72.4906 13.9381L71.4531 15.5904C71.2994 15.8209 71.1713 15.9362 71.0688 15.9362C70.9664 15.9362 70.8127 15.8721 70.6077 15.7441C69.9417 15.3342 69.1347 15.014 68.1869 14.7834C67.2647 14.5273 66.3297 14.3992 65.3818 14.3992C64.101 14.3992 63.1531 14.5401 62.5383 14.8218C61.9491 15.078 61.6545 15.5904 61.6545 16.3589C61.6545 17.0249 62.0004 17.5501 62.692 17.9343C63.4093 18.3186 64.6389 18.7797 66.3809 19.3176L67.6489 19.7019C69.6471 20.3423 71.0432 21.098 71.8373 21.969C72.6571 22.84 73.0669 23.9287 73.0669 25.2352C73.0669 26.8235 72.3625 28.1171 70.9535 29.1162C69.5702 30.1152 67.5209 30.6148 64.8054 30.6148Z" fill="#E2E7E2"/>
<path d="M84.7805 30.6148C82.603 30.6148 80.9635 30.0128 79.862 28.8088C78.7605 27.6048 78.2097 25.9397 78.2097 23.8134V15.2061H76.0194C75.5071 15.2061 75.1612 15.1164 74.9819 14.9371C74.8282 14.7578 74.7514 14.4248 74.7514 13.9381V12.9006C74.7514 12.4138 74.8282 12.0808 74.9819 11.9015C75.1612 11.6966 75.5071 11.5941 76.0194 11.5941H78.2097V9.48068C78.2097 8.94272 78.2993 8.44319 78.4787 7.98208C78.6836 7.49536 78.991 6.89336 79.4009 6.17608C79.5546 5.86867 79.6955 5.67654 79.8236 5.59969C79.9773 5.49722 80.2334 5.44599 80.5921 5.44599H81.8601C82.3212 5.44599 82.6414 5.56127 82.8208 5.79182C83.0257 5.99676 83.1282 6.31697 83.1282 6.75246V11.5941H87.6624C88.1747 11.5941 88.5078 11.6966 88.6615 11.9015C88.8408 12.0808 88.9304 12.4138 88.9304 12.9006V13.9381C88.9304 14.4248 88.8408 14.7578 88.6615 14.9371C88.5078 15.1164 88.1747 15.2061 87.6624 15.2061H83.1282V23.6597C83.1282 24.8381 83.3331 25.6963 83.743 26.2343C84.1528 26.7466 84.8573 27.0028 85.8564 27.0028C86.4456 27.0028 86.9451 26.9387 87.355 26.8106C87.7649 26.6569 88.2132 26.4136 88.6999 26.0806C88.828 25.9781 88.9689 25.9269 89.1226 25.9269C89.2763 25.9269 89.43 26.0421 89.5837 26.2727L90.698 28.1171C90.8005 28.2452 90.8517 28.3861 90.8517 28.5398C90.8517 28.7191 90.7236 28.8984 90.4675 29.0778C88.8792 30.1024 86.9835 30.6148 84.7805 30.6148Z" fill="#E2E7E2"/>
<path d="M95.7714 8.40476C95.1566 8.40476 94.6827 8.22545 94.3497 7.86681C94.0166 7.50817 93.8501 7.07268 93.8501 6.56033V5.7534C93.8501 5.24105 94.0166 4.80556 94.3497 4.44692C94.6827 4.08829 95.1566 3.90897 95.7714 3.90897H97.4237C98.0385 3.90897 98.5124 4.08829 98.8455 4.44692C99.2041 4.80556 99.3834 5.24105 99.3834 5.7534V6.56033C99.3834 7.07268 99.2041 7.50817 98.8455 7.86681C98.5124 8.22545 98.0385 8.40476 97.4237 8.40476H95.7714ZM95.6177 30.0384C95.1054 30.0384 94.7339 29.9231 94.5034 29.6926C94.2728 29.462 94.1575 29.1162 94.1575 28.6551V13.0158C94.1575 12.5291 94.2728 12.1705 94.5034 11.9399C94.7339 11.7094 95.1054 11.5941 95.6177 11.5941H97.6158C98.1282 11.5941 98.4996 11.7094 98.7302 11.9399C98.9607 12.1705 99.076 12.5291 99.076 13.0158V28.6551C99.076 29.1162 98.9607 29.462 98.7302 29.6926C98.5252 29.9231 98.1538 30.0384 97.6158 30.0384H95.6177Z" fill="#E2E7E2"/>
<path d="M113.974 30.6148C110.567 30.6148 107.903 29.7822 105.982 28.1171C104.086 26.4264 103.138 24.0184 103.138 20.8931C103.138 18.9462 103.574 17.2299 104.445 15.7441C105.316 14.2583 106.558 13.1055 108.172 12.2858C109.812 11.4404 111.72 11.0177 113.897 11.0177C115.511 11.0177 116.882 11.1714 118.009 11.4788C119.136 11.7862 120.187 12.2858 121.16 12.9774C121.391 13.1311 121.506 13.2976 121.506 13.4769C121.506 13.6307 121.442 13.81 121.314 14.0149L120.276 15.8209C120.122 16.0771 119.982 16.2052 119.853 16.2052C119.725 16.2052 119.546 16.1283 119.316 15.9746C118.521 15.4879 117.727 15.1293 116.933 14.8987C116.165 14.6425 115.242 14.5144 114.166 14.5144C112.245 14.5144 110.734 15.0908 109.632 16.2436C108.531 17.3707 107.98 18.9206 107.98 20.8931C107.98 22.9681 108.531 24.5307 109.632 25.581C110.734 26.6057 112.348 27.118 114.474 27.118C115.55 27.118 116.485 26.99 117.279 26.7338C118.073 26.4776 118.842 26.1062 119.584 25.6195C119.789 25.4914 119.956 25.4273 120.084 25.4273C120.238 25.4273 120.391 25.5554 120.545 25.8116L121.659 27.6944C121.762 27.8225 121.813 27.9634 121.813 28.1171C121.813 28.2964 121.685 28.4758 121.429 28.6551C120.404 29.3211 119.303 29.8078 118.124 30.1152C116.946 30.4483 115.563 30.6148 113.974 30.6148Z" fill="#E2E7E2"/>
<path d="M135.279 30.6148C131.948 30.6148 129.374 29.7438 127.555 28.0018C125.762 26.2343 124.865 23.8391 124.865 20.8162C124.865 17.7934 125.762 15.411 127.555 13.6691C129.374 11.9015 131.948 11.0177 135.279 11.0177C138.609 11.0177 141.183 11.9015 143.002 13.6691C144.821 15.411 145.73 17.7934 145.73 20.8162C145.73 23.8391 144.821 26.2343 143.002 28.0018C141.183 29.7438 138.609 30.6148 135.279 30.6148ZM135.279 27.0028C137.097 27.0028 138.481 26.4776 139.429 25.4273C140.376 24.377 140.85 22.84 140.85 20.8162C140.85 18.8181 140.376 17.3067 139.429 16.282C138.481 15.2317 137.097 14.7066 135.279 14.7066C133.485 14.7066 132.102 15.2317 131.129 16.282C130.181 17.3067 129.707 18.8181 129.707 20.8162C129.707 22.8144 130.181 24.3514 131.129 25.4273C132.102 26.4776 133.485 27.0028 135.279 27.0028Z" fill="#E2E7E2"/>
<path d="M158.187 30.6148C156.343 30.6148 154.55 30.3715 152.808 29.8847C151.091 29.398 149.708 28.7704 148.658 28.0019V5.59972C148.658 5.03615 148.786 4.61347 149.042 4.33168C149.324 4.04989 149.772 3.909 150.387 3.909H153.154C153.794 3.909 154.242 4.04989 154.498 4.33168C154.755 4.58785 154.883 5.01053 154.883 5.59972V12.4395C155.472 11.9784 156.24 11.6325 157.188 11.402C158.136 11.1458 159.122 11.0177 160.147 11.0177C163.119 11.0177 165.386 11.8119 166.948 13.4001C168.537 14.9628 169.331 17.1915 169.331 20.0862C169.331 23.4164 168.383 26.0037 166.487 27.8482C164.617 29.6926 161.851 30.6148 158.187 30.6148ZM157.88 26.2343C159.622 26.2343 160.916 25.7348 161.761 24.7357C162.606 23.711 163.029 22.1868 163.029 20.163C163.029 18.5235 162.696 17.3195 162.03 16.551C161.389 15.7825 160.326 15.3983 158.841 15.3983C157.765 15.3983 156.83 15.68 156.035 16.2436C155.267 16.7816 154.883 17.5757 154.883 18.626V25.5811C155.241 25.786 155.69 25.9525 156.228 26.0806C156.766 26.1831 157.316 26.2343 157.88 26.2343Z" fill="white"/>
<path d="M181.501 30.6148C178.094 30.6148 175.443 29.7438 173.547 28.0019C171.677 26.2343 170.742 23.8391 170.742 20.8163C170.742 17.7935 171.677 15.4111 173.547 13.6691C175.443 11.9015 178.094 11.0177 181.501 11.0177C184.934 11.0177 187.585 11.9015 189.455 13.6691C191.351 15.4111 192.299 17.7935 192.299 20.8163C192.299 23.8391 191.351 26.2343 189.455 28.0019C187.585 29.7438 184.934 30.6148 181.501 30.6148ZM181.501 26.0422C182.961 26.0422 184.076 25.6067 184.844 24.7357C185.613 23.8647 185.997 22.5582 185.997 20.8163C185.997 19.0999 185.613 17.8063 184.844 16.9353C184.076 16.0643 182.961 15.6288 181.501 15.6288C180.067 15.6288 178.965 16.0643 178.197 16.9353C177.428 17.8063 177.044 19.0999 177.044 20.8163C177.044 22.5326 177.428 23.8391 178.197 24.7357C178.965 25.6067 180.067 26.0422 181.501 26.0422Z" fill="white"/>
<path d="M197.181 30.0384C196.566 30.0384 196.117 29.9103 195.836 29.6542C195.58 29.3724 195.451 28.9497 195.451 28.3861V5.59972C195.451 5.03615 195.58 4.61347 195.836 4.33168C196.117 4.04989 196.566 3.909 197.181 3.909H200.063C200.703 3.909 201.151 4.04989 201.407 4.33168C201.664 4.58785 201.792 5.01053 201.792 5.59972V28.3861C201.792 28.9497 201.664 29.3724 201.407 29.6542C201.151 29.9103 200.703 30.0384 200.063 30.0384H197.181Z" fill="white"/>
<path d="M207.463 30.0384C206.823 30.0384 206.362 29.9103 206.08 29.6542C205.824 29.3724 205.696 28.9497 205.696 28.3861V5.02334C205.696 4.58785 205.773 4.29325 205.926 4.13955C206.08 3.98585 206.387 3.909 206.849 3.909H210.422C210.883 3.909 211.191 3.98585 211.344 4.13955C211.524 4.29325 211.613 4.58785 211.613 5.02334V13.208C213.278 11.7478 215.443 11.0177 218.107 11.0177C220.208 11.0177 221.886 11.5941 223.141 12.7469C224.422 13.874 225.062 15.5648 225.062 17.8191V28.3861C225.062 28.9497 224.921 29.3724 224.64 29.6542C224.383 29.9103 223.948 30.0384 223.333 30.0384H220.451C219.811 30.0384 219.35 29.9103 219.068 29.6542C218.812 29.3724 218.684 28.9497 218.684 28.3861V18.2033C218.684 17.2043 218.453 16.487 217.992 16.0515C217.531 15.616 216.826 15.3983 215.879 15.3983C214.828 15.3983 213.919 15.6929 213.15 16.2821C212.407 16.8456 212.036 17.5885 212.036 18.5107V28.3861C212.036 28.9497 211.908 29.3724 211.652 29.6542C211.396 29.9103 210.947 30.0384 210.307 30.0384H207.463Z" fill="white"/>
<path d="M235.55 30.6148C233.091 30.6148 231.118 29.8463 229.633 28.3093C228.172 26.7722 227.442 24.6076 227.442 21.8153C227.442 19.6635 227.942 17.7807 228.941 16.1668C229.94 14.5273 231.336 13.2592 233.129 12.3626C234.922 11.466 236.997 11.0177 239.354 11.0177C241.173 11.0177 242.774 11.2227 244.157 11.6325C245.566 12.0424 246.847 12.6316 248 13.4001V28.9241C248 29.3596 247.91 29.6542 247.731 29.8079C247.577 29.9616 247.257 30.0384 246.77 30.0384H243.735C243.453 30.0384 243.235 29.9872 243.082 29.8847C242.953 29.7823 242.851 29.6157 242.774 29.3852L242.351 28.0403C241.583 28.9369 240.648 29.5901 239.546 30C238.445 30.4099 237.113 30.6148 235.55 30.6148ZM237.894 26.2343C239.021 26.2343 239.995 25.9141 240.814 25.2737C241.66 24.6332 242.082 23.7622 242.082 22.6607V15.9362C241.314 15.552 240.392 15.3598 239.316 15.3598C237.625 15.3598 236.267 15.9234 235.243 17.0506C234.244 18.1521 233.744 19.7019 233.744 21.7001C233.744 23.2371 234.09 24.3771 234.782 25.1199C235.473 25.8628 236.511 26.2343 237.894 26.2343Z" fill="white"/>
</svg>
